<?xml version="1.0"?>
<svg xmlns="http://www.w3.org/2000/svg" viewBox="0 0 50 50">
    <path d="M 25 3 C 19.082 3 14.476344 3.4664219 11.652344 3.8574219 C 10.060344 4.0794219 8.9209531 5.4527813 9.0019531 7.0507812 C 9.0469531 7.9087812 9.1342344 9.0516406 9.2402344 10.431641 C 9.4912344 13.661641 9.8420312 18.268031 9.9570312 23.582031 C 11.759031 22.608031 14.061969 22 16.917969 22 C 19.444969 22 21.719125 23.158 23.328125 25 L 26.669922 25 C 28.278922 23.158 30.553078 22 33.080078 22 C 35.937078 22 38.240969 22.607031 40.042969 23.582031 C 40.159969 18.347031 40.509766 13.711078 40.759766 10.455078 C 40.865766 9.0610781 40.953047 7.9087344 40.998047 7.0527344 C 41.080047 5.4537344 39.941656 4.0794219 38.347656 3.8574219 C 35.524656 3.4664219 30.918 3 25 3 z M 30 8 L 32 8 L 32 9.6621094 C 32.229 9.7311094 32.445344 9.8225938 32.652344 9.9335938 L 33.792969 8.7929688 L 35.207031 10.207031 L 34.066406 11.347656 C 34.178406 11.554656 34.269891 11.771 34.337891 12 L 36 12 L 36 14 L 34.337891 14 C 34.268891 14.229 34.177406 14.445344 34.066406 14.652344 L 35.207031 15.792969 L 33.792969 17.207031 L 32.652344 16.066406 C 32.445344 16.178406 32.229 16.269891 32 16.337891 L 32 18 L 30 18 L 30 16.337891 C 29.771 16.268891 29.554656 16.177406 29.347656 16.066406 L 28.207031 17.207031 L 26.792969 15.792969 L 27.933594 14.652344 C 27.821594 14.445344 27.730109 14.229 27.662109 14 L 26 14 L 26 12 L 27.662109 12 C 27.731109 11.771 27.822594 11.554656 27.933594 11.347656 L 26.792969 10.207031 L 28.207031 8.7929688 L 29.347656 9.9335938 C 29.554656 9.8215937 29.771 9.7301094 30 9.6621094 L 30 8 z M 19 10 L 21 10 L 21 11.662109 C 21.229 11.731109 21.445344 11.822594 21.652344 11.933594 L 22.792969 10.792969 L 24.207031 12.207031 L 23.066406 13.347656 C 23.178406 13.554656 23.269891 13.771 23.337891 14 L 25 14 L 25 16 L 23.337891 16 C 23.268891 16.229 23.177406 16.445344 23.066406 16.652344 L 24.207031 17.792969 L 22.792969 19.207031 L 21.652344 18.066406 C 21.445344 18.178406 21.229 18.269891 21 18.337891 L 21 20 L 19 20 L 19 18.337891 C 18.771 18.268891 18.554656 18.177406 18.347656 18.066406 L 17.207031 19.207031 L 15.792969 17.792969 L 16.933594 16.652344 C 16.821594 16.445344 16.730109 16.229 16.662109 16 L 15 16 L 15 14 L 16.662109 14 C 16.731109 13.771 16.822594 13.554656 16.933594 13.347656 L 15.792969 12.207031 L 17.207031 10.792969 L 18.347656 11.933594 C 18.554656 11.821594 18.771 11.730109 19 11.662109 L 19 10 z M 31 11.5 A 1.5 1.5 0 0 0 29.5 13 A 1.5 1.5 0 0 0 31 14.5 A 1.5 1.5 0 0 0 32.5 13 A 1.5 1.5 0 0 0 31 11.5 z M 20 13.5 A 1.5 1.5 0 0 0 18.5 15 A 1.5 1.5 0 0 0 20 16.5 A 1.5 1.5 0 0 0 21.5 15 A 1.5 1.5 0 0 0 20 13.5 z M 16.5 24 C 16.224191 24 15.951842 24.0176 15.683594 24.046875 L 15.683594 24.044922 C 15.679371 24.045375 15.675831 24.047675 15.671875 24.048828 C 15.592658 24.057602 15.515967 24.072745 15.4375 24.083984 C 12.865623 24.310623 10.784988 25.115197 9.328125 26.394531 C 7.8149655 27.723356 7 29.555945 7 31.5 C 7 33.444987 7.8223705 35.274688 9.3359375 36.601562 C 10.800398 37.885388 12.888229 38.695357 15.462891 38.919922 C 15.802733 38.967401 16.147453 39 16.5 39 C 20.630291 39 24 35.630291 24 31.5 C 24 31.398582 23.9884 31.299681 23.984375 31.199219 C 24.302544 31.08096 24.639163 31 25 31 C 25.360837 31 25.697515 31.08096 26.015625 31.199219 C 26.0116 31.299681 26 31.398582 26 31.5 C 26 35.630291 29.369709 39 33.5 39 C 33.852547 39 34.197267 38.967401 34.537109 38.919922 C 37.111771 38.695357 39.199602 37.885388 40.664062 36.601562 C 42.177632 35.27468 43 33.444987 43 31.5 C 43 29.555945 42.185033 27.723302 40.671875 26.394531 C 39.215012 25.115197 37.134377 24.310623 34.5625 24.083984 C 34.484033 24.072745 34.407342 24.057602 34.328125 24.048828 C 34.324169 24.047673 34.320629 24.045378 34.316406 24.044922 L 34.316406 24.046875 C 34.048158 24.0176 33.775809 24 33.5 24 C 31.058105 24 28.88859 25.183507 27.517578 27 L 22.482422 27 C 21.11141 25.183507 18.941895 24 16.5 24 z M 16.5 26 C 19.549411 26 22 28.450589 22 31.5 C 22 34.549411 19.549411 37 16.5 37 C 16.293709 37 16.090862 36.986701 15.890625 36.964844 C 14.532712 36.815314 13.327037 36.172194 12.451172 35.220703 C 12.429345 35.196947 12.406175 35.174532 12.384766 35.150391 C 12.184021 34.924438 12.003404 34.681021 11.841797 34.423828 C 11.829208 34.403746 11.817022 34.383539 11.804688 34.363281 C 11.644288 34.10048 11.503722 33.822975 11.388672 33.533203 C 11.38028 33.511987 11.37337 33.490096 11.365234 33.46875 C 11.25329 33.176096 11.164518 32.873278 11.103516 32.558594 C 11.099536 32.538009 11.097501 32.516761 11.09375 32.496094 C 11.03497 32.173029 11 31.840691 11 31.5 C 11 31.159015 11.034843 30.827286 11.09375 30.503906 C 11.097501 30.483239 11.099536 30.461991 11.103516 30.441406 C 11.164016 30.129669 11.252756 29.829235 11.363281 29.539062 C 11.373063 29.513283 11.38047 29.486527 11.390625 29.460938 C 11.504862 29.174196 11.646005 28.898997 11.804688 28.638672 C 11.818353 28.616214 11.829773 28.592555 11.84375 28.570312 C 12.008207 28.309055 12.193625 28.064888 12.398438 27.835938 C 12.412571 27.820113 12.427092 27.80472 12.441406 27.789062 C 12.874278 27.316329 13.386689 26.917421 13.960938 26.619141 C 13.971 26.613921 13.982088 26.610628 13.992188 26.605469 C 14.575556 26.307049 15.21882 26.107073 15.900391 26.033203 C 16.097409 26.012057 16.297136 26 16.5 26 z M 33.5 26 C 33.702864 26 33.902591 26.012057 34.099609 26.033203 C 34.78118 26.107073 35.424444 26.307049 36.007812 26.605469 C 36.017912 26.610628 36.029 26.613921 36.039062 26.619141 C 36.329653 26.770081 36.604128 26.946155 36.861328 27.144531 C 36.863489 27.146198 36.865029 27.148721 36.867188 27.150391 C 37.115764 27.342713 37.346635 27.557585 37.558594 27.789062 C 37.572908 27.80472 37.587429 27.820113 37.601562 27.835938 C 37.806375 28.064888 37.991793 28.309055 38.15625 28.570312 C 38.170227 28.592555 38.181647 28.616214 38.195312 28.638672 C 38.353995 28.898997 38.495138 29.174196 38.609375 29.460938 C 38.61953 29.486527 38.626937 29.513283 38.636719 29.539062 C 38.747244 29.829235 38.835984 30.129669 38.896484 30.441406 C 38.900464 30.461991 38.902499 30.483239 38.90625 30.503906 C 38.965157 30.827286 39 31.159015 39 31.5 C 39 31.840691 38.96503 32.173029 38.90625 32.496094 C 38.902499 32.516761 38.900464 32.538009 38.896484 32.558594 C 38.835482 32.873278 38.74671 33.176096 38.634766 33.46875 C 38.62663 33.490096 38.61972 33.511987 38.611328 33.533203 C 38.496278 33.822975 38.355712 34.10048 38.195312 34.363281 C 38.182978 34.383539 38.170792 34.403746 38.158203 34.423828 C 37.996596 34.681021 37.815979 34.924438 37.615234 35.150391 C 37.593825 35.174532 37.570655 35.196947 37.548828 35.220703 C 37.338775 35.448893 37.11296 35.661671 36.867188 35.851562 C 36.863074 35.854744 36.857639 35.856205 36.853516 35.859375 C 36.597394 36.0561 36.32424 36.233026 36.035156 36.382812 C 36.033347 36.383749 36.031107 36.383831 36.029297 36.384766 C 35.443198 36.687619 34.795423 36.889296 34.109375 36.964844 C 33.909138 36.986701 33.706291 37 33.5 37 C 30.450589 37 28 34.549411 28 31.5 C 28 28.450589 30.450589 26 33.5 26 z M 33.494141 27 A 0.5 0.5 0 0 0 33.396484 27.011719 A 0.5 0.5 0 0 0 33.011719 27.603516 A 0.5 0.5 0 0 0 33.603516 27.990234 A 0.5 0.5 0 0 0 33.988281 27.396484 A 0.5 0.5 0 0 0 33.494141 27 z M 16.46875 27.001953 A 0.5 0.5 0 0 0 16.009766 27.396484 A 0.5 0.5 0 0 0 16.394531 27.990234 A 0.5 0.5 0 0 0 16.988281 27.605469 A 0.5 0.5 0 0 0 16.603516 27.011719 A 0.5 0.5 0 0 0 16.46875 27.001953 z M 13.486328 28 A 0.5 0.5 0 0 0 13.205078 28.095703 A 0.5 0.5 0 0 0 13.095703 28.792969 A 0.5 0.5 0 0 0 13.792969 28.904297 A 0.5 0.5 0 0 0 13.904297 28.205078 A 0.5 0.5 0 0 0 13.486328 28 z M 19.486328 28 A 0.5 0.5 0 0 0 19.205078 28.095703 A 0.5 0.5 0 0 0 19.095703 28.792969 A 0.5 0.5 0 0 0 19.792969 28.904297 A 0.5 0.5 0 0 0 19.904297 28.205078 A 0.5 0.5 0 0 0 19.486328 28 z M 30.478516 28.001953 A 0.5 0.5 0 0 0 30.095703 28.207031 A 0.5 0.5 0 0 0 30.207031 28.90625 A 0.5 0.5 0 0 0 30.904297 28.794922 A 0.5 0.5 0 0 0 30.794922 28.095703 A 0.5 0.5 0 0 0 30.478516 28.001953 z M 36.478516 28.001953 A 0.5 0.5 0 0 0 36.095703 28.207031 A 0.5 0.5 0 0 0 36.207031 28.90625 A 0.5 0.5 0 0 0 36.904297 28.794922 A 0.5 0.5 0 0 0 36.794922 28.095703 A 0.5 0.5 0 0 0 36.478516 28.001953 z M 16.5 29 A 2.5 2.5 0 0 0 14 31.5 A 2.5 2.5 0 0 0 16.5 34 A 2.5 2.5 0 0 0 19 31.5 A 2.5 2.5 0 0 0 16.5 29 z M 33.5 29 A 2.5 2.5 0 0 0 31 31.5 A 2.5 2.5 0 0 0 33.5 34 A 2.5 2.5 0 0 0 36 31.5 A 2.5 2.5 0 0 0 33.5 29 z M 29.494141 31 A 0.5 0.5 0 0 0 29.396484 31.011719 A 0.5 0.5 0 0 0 29.009766 31.603516 A 0.5 0.5 0 0 0 29.603516 31.990234 A 0.5 0.5 0 0 0 29.988281 31.396484 A 0.5 0.5 0 0 0 29.494141 31 z M 37.494141 31 A 0.5 0.5 0 0 0 37.396484 31.011719 A 0.5 0.5 0 0 0 37.009766 31.603516 A 0.5 0.5 0 0 0 37.603516 31.990234 A 0.5 0.5 0 0 0 37.988281 31.396484 A 0.5 0.5 0 0 0 37.494141 31 z M 12.466797 31.001953 A 0.5 0.5 0 0 0 12.009766 31.398438 A 0.5 0.5 0 0 0 12.394531 31.990234 A 0.5 0.5 0 0 0 12.986328 31.605469 A 0.5 0.5 0 0 0 12.601562 31.011719 A 0.5 0.5 0 0 0 12.466797 31.001953 z M 20.466797 31.001953 A 0.5 0.5 0 0 0 20.009766 31.398438 A 0.5 0.5 0 0 0 20.394531 31.990234 A 0.5 0.5 0 0 0 20.986328 31.605469 A 0.5 0.5 0 0 0 20.601562 31.011719 A 0.5 0.5 0 0 0 20.466797 31.001953 z M 4.1640625 32.003906 C 3.8645625 31.982906 3.5622969 32.028625 3.2792969 32.140625 C 2.7612969 32.345625 2.3613906 32.735234 2.1503906 33.240234 C 1.9453906 33.733234 1.9472031 34.275625 2.1582031 34.765625 C 2.3542031 35.225625 7.171 46 25 46 C 42.829 46 47.645797 35.225578 47.841797 34.767578 C 48.052797 34.276578 48.054609 33.735187 47.849609 33.242188 C 47.638609 32.737187 47.238703 32.345625 46.720703 32.140625 C 46.178703 31.923625 45.566938 31.965438 44.960938 32.273438 C 44.562938 36.612437 40.810031 41 33.082031 41 C 29.469031 41 26.36 38.643203 25 35.283203 C 23.64 38.643203 20.530969 41 16.917969 41 C 9.1839688 41 5.4320625 36.606672 5.0390625 32.263672 L 5.0351562 32.261719 C 4.7601562 32.111719 4.4635625 32.024906 4.1640625 32.003906 z M 13.486328 34 A 0.5 0.5 0 0 0 13.205078 34.095703 A 0.5 0.5 0 0 0 13.095703 34.792969 A 0.5 0.5 0 0 0 13.792969 34.904297 A 0.5 0.5 0 0 0 13.904297 34.205078 A 0.5 0.5 0 0 0 13.486328 34 z M 19.486328 34 A 0.5 0.5 0 0 0 19.205078 34.095703 A 0.5 0.5 0 0 0 19.095703 34.792969 A 0.5 0.5 0 0 0 19.792969 34.904297 A 0.5 0.5 0 0 0 19.904297 34.205078 A 0.5 0.5 0 0 0 19.486328 34 z M 30.478516 34.001953 A 0.5 0.5 0 0 0 30.095703 34.207031 A 0.5 0.5 0 0 0 30.207031 34.90625 A 0.5 0.5 0 0 0 30.904297 34.794922 A 0.5 0.5 0 0 0 30.794922 34.095703 A 0.5 0.5 0 0 0 30.478516 34.001953 z M 36.478516 34.001953 A 0.5 0.5 0 0 0 36.095703 34.207031 A 0.5 0.5 0 0 0 36.207031 34.90625 A 0.5 0.5 0 0 0 36.904297 34.794922 A 0.5 0.5 0 0 0 36.794922 34.095703 A 0.5 0.5 0 0 0 36.478516 34.001953 z M 33.494141 35 A 0.5 0.5 0 0 0 33.396484 35.011719 A 0.5 0.5 0 0 0 33.009766 35.603516 A 0.5 0.5 0 0 0 33.603516 35.990234 A 0.5 0.5 0 0 0 33.988281 35.396484 A 0.5 0.5 0 0 0 33.494141 35 z M 16.466797 35.001953 A 0.5 0.5 0 0 0 16.009766 35.398438 A 0.5 0.5 0 0 0 16.394531 35.990234 A 0.5 0.5 0 0 0 16.986328 35.605469 A 0.5 0.5 0 0 0 16.601562 35.011719 A 0.5 0.5 0 0 0 16.466797 35.001953 z"/>
</svg>
